<?xml version="1.0" encoding="UTF-8"?><!DOCTYPE svg PUBLIC "-//W3C//DTD SVG 1.1//EN" "http://www.w3.org/Graphics/SVG/1.1/DTD/svg11.dtd"><svg xmlns="http://www.w3.org/2000/svg" xmlns:xlink="http://www.w3.org/1999/xlink"><defs/><symbol id="caret--down" viewBox="0 0 8 4"><path d="M8 0L4 4 0 0z"/></symbol><symbol id="caret--left" viewBox="0 0 5 8"><path d="M5 8L0 4 5 0z"/></symbol><symbol id="caret--right" viewBox="0 0 5 8"><path d="M0 0L5 4 0 8z"/></symbol><symbol id="caret--up" viewBox="0 0 8 4"><path d="M0 4L4 0 8 4z"/></symbol><symbol id="caution-inverted" viewBox="0 0 16 16"><path d="M8 14L2 3 14 3 8 14z"/></symbol><symbol id="caution" viewBox="0 0 16 16"><path d="M12.3154,12H3.6846L8,4.0884,12.3154,12M14,13,8,2,2,13Z"/><path d="M12.315 12L3.685 12 8 4.088 12.315 12z"/></symbol><symbol id="chevron--down" viewBox="0 0 10 6"><path d="M5 6L0 1 0.7 0.3 5 4.6 9.3 0.3 10 1z"/></symbol><symbol id="chevron--left" viewBox="0 0 6 10"><path d="M0 5L5 0 5.7 0.7 1.4 5 5.7 9.3 5 10z"/></symbol><symbol id="chevron--right" viewBox="0 0 6 10"><path d="M6 5L1 10 0.3 9.3 4.6 5 0.3 0.7 1 0z"/></symbol><symbol id="chevron--up" viewBox="0 0 10 6"><path d="M5 0L10 5 9.3 5.7 5 1.4 0.7 5.7 0 5z"/></symbol><symbol id="circle-fill" viewBox="0 0 16 16"><circle cx="8" cy="8" r="6"/></symbol><symbol id="circle-stroke" viewBox="0 0 16 16"><path d="M8,4A4,4,0,1,1,4,8,4.0045,4.0045,0,0,1,8,4M8,2a6,6,0,1,0,6,6A6,6,0,0,0,8,2Z"/></symbol><symbol id="critical-severity" viewBox="0 0 16 16"><path d="M13 13L3 13 3 3 13 13z"/></symbol><symbol id="critical" viewBox="0 0 16 16"><path d="M12.887 11.4727a5.9936 5.9936 0 00-8.36-8.3594zM3.113 4.5273a5.9936 5.9936 0 008.36 8.3594z"/></symbol><symbol id="incomplete" viewBox="0 0 16 16"><path d="M8,2a6,6,0,1,0,6,6A6,6,0,0,0,8,2ZM8,4a4.0045,4.0045,0,0,1,4,4H4A4.0045,4.0045,0,0,1,8,4Z"/></symbol><symbol id="low-severity" viewBox="0 0 16 16"><path d="M4 4H12V12H4z"/><path d="M12,4v8H4V4h8m1-1H3V13H13V3Z"/></symbol><symbol id="square-fill" viewBox="0 0 16 16"><path d="M3 3H13V13H3z"/></symbol><symbol id="undefined" viewBox="0 0 16 16"><path d="M8,2.4142,13.5858,8,8,13.5858,2.4142,8,8,2.4142M8,1,1,8l7,7,7-7L8,1Z"/><path d="M8,2.4142,13.5858,8,8,13.5858,2.4142,8,8,2.4142"/></symbol></svg>